PathFileType	4	(X/Y/Z)	G:\Shared drives\HPL_Drive\Pi-Spi Study\20230118_AMCsubject1\Trimmed_left_horiz_add01_rotated.trc
DataRate	CameraRate	NumFrames	NumMarkers	Units	OrigDataRate	OrigDataStartFrame	OrigNumFrames
200.00	200.00	       11	35	mm	200.00	51	       200
Frame#	Time	C7			Sternum			r_AMC1			r_AMC2			r_AMC3			l_AMC1			l_AMC2			l_AMC3			PX			T8			r_humerous			r_elbow_medial			r_elbow_lateral			r_forearm			r_wrist_radius			r_wrist_ulna			r_MCP_1			r_MCP_3			l_humerous			l_elbow_medial			l_elbow_lateral			l_forearm			l_wrist_radius			l_wrist_ulna			l_MCP_1			l_MCP_3			r_ASIS			r_PSIS			l_ASIS			l_PSIS			r_IC			l_IC			TS			AI			AA			
		X1	Y1	Z1	X2	Y2	Z2	X3	Y3	Z3	X4	Y4	Z4	X5	Y5	Z5	X6	Y6	Z6	X7	Y7	Z7	X8	Y8	Z8	X9	Y9	Z9	X10	Y10	Z10	X11	Y11	Z11	X12	Y12	Z12	X13	Y13	Z13	X14	Y14	Z14	X15	Y15	Z15	X16	Y16	Z16	X17	Y17	Z17	X18	Y18	Z18	X19	Y19	Z19	X20	Y20	Z20	X21	Y21	Z21	X22	Y22	Z22	X23	Y23	Z23	X24	Y24	Z24	X25	Y25	Z25	X26	Y26	Z26	X27	Y27	Z27	X28	Y28	Z28	X29	Y29	Z29	X30	Y30	Z30	X31	Y31	Z31	X32	Y32	Z32	X33	Y33	Z33	X34	Y34	Z34	X35	Y35	Z35	

51	0.25	178.4584	1367.8895	-254.4647	313.9284	1320.9109	-227.8688	177.9104	1324.1268	-85.3533	211.5541	1331.0437	-49.374	229.6794	1365.8679	-72.6746	234.164	1341.4774	-408.3409	279.6885	1363.7635	-418.2257	268.415	1388.1709	-371.3524	392.0311	1132.2054	-215.1131	159.5918	1189.3069	-252.1511	296.4945	1148.7904	-27.9665	227.2491	1005.8254	-51.4529	247.4465	1016.3673	11.6766	304.9225	861.7843	29.0242	353.3451	799.2812	5.6287	307.5935	792.7517	28.9219	377.0481	716.8754	15.7495	330.0652	712.8502	35.1992	418.7576	1330.4172	-297.6806	529.4259	1239.88	-264.2018	555.7197	1282.8501	-278.5413	673.3777	1311.5855	-169.19	711.1146	1328.9896	-103.7709	721.3467	1287.4064	-109.4923	770.5142	1340.4922	-54.4148	776.7704	1297.7054	-54.541	385.7915	907.1752	-89.2254	191.3642	928.6114	-156.0522	365.9407	894.7776	-345.5369	183.6561	922.4511	-259.421	306.7175	971.7078	-55.1536	275.5374	940.2125	-378.1174	145.4345	1296.1619	-387.7406	168.824	1199.6672	-403.9451	243.3245	1339.9421	-475.5463
52	0.255	178.4783	1367.9019	-254.4895	313.9639	1320.9169	-227.847	177.928	1324.1266	-85.372	211.5677	1331.0303	-49.3252	229.716	1365.8825	-72.7014	234.1915	1341.489	-408.3395	279.7488	1363.7361	-418.1994	268.4519	1388.1702	-371.3546	392.0758	1132.225	-215.1157	159.6364	1189.3012	-252.1435	296.517	1148.7897	-27.9915	227.2656	1005.8355	-51.4341	247.4722	1016.4215	11.6509	304.9054	861.7853	29.0602	353.3297	799.2795	5.6401	307.579	792.7797	28.9549	376.9228	716.7629	15.6935	330.1171	712.7676	35.2818	418.7806	1330.3683	-297.6753	529.4798	1239.8713	-264.2949	555.7549	1282.8217	-278.5505	673.3898	1311.5109	-169.1666	711.1558	1328.9055	-103.7317	721.3893	1287.2439	-109.4369	770.5575	1340.4248	-54.3847	776.8447	1297.4895	-54.4776	385.8059	907.1923	-89.2043	191.3826	928.6216	-156.0466	365.9594	894.7645	-345.5137	183.663	922.4501	-259.4341	306.7467	971.7777	-55.1875	275.5794	940.1899	-378.0872	145.4367	1296.0815	-387.7226	168.846	1199.6596	-403.964	243.3709	1339.9227	-475.5559
53	0.26	178.4876	1367.9004	-254.4827	313.9998	1320.9246	-227.8605	177.9655	1324.1676	-85.3841	211.5738	1331.1127	-49.4252	229.7675	1365.859	-72.6627	234.2624	1341.4879	-408.3376	279.6792	1363.8397	-418.1716	268.5116	1388.189	-371.3549	392.0984	1132.2731	-215.0824	159.6458	1189.3186	-252.1563	296.5779	1148.7897	-27.9591	227.2515	1005.8441	-51.4042	247.4752	1016.4482	11.6783	304.7883	861.8133	29.0899	353.3588	799.2139	5.6961	307.497	792.8338	29.0219	376.9647	716.904	15.8558	330.0208	712.7972	35.365	418.8614	1330.2913	-297.6698	531.7991	1238.9462	-264.7987	555.7576	1282.803	-278.5464	673.441	1311.4351	-169.1647	711.1574	1328.8524	-103.6941	721.4144	1287.1838	-109.4466	770.5897	1340.3142	-54.3633	776.8741	1297.4097	-54.4888	385.8287	907.1791	-89.1665	191.4036	928.6208	-156.0234	365.9844	894.7733	-345.5049	183.6689	922.461	-259.3967	306.773	971.6924	-55.1559	275.6033	940.1862	-378.0494	145.4764	1296.1227	-387.7494	168.8782	1199.666	-403.9571	243.4266	1339.9342	-475.5561
54	0.265	178.5275	1367.8945	-254.5167	314.0069	1320.9352	-227.8267	178.0043	1324.1619	-85.3867	211.618	1331.0935	-49.3697	229.7696	1365.8956	-72.6672	234.2804	1341.4989	-408.3428	279.6288	1363.8872	-418.1235	268.5429	1388.1769	-371.3532	392.1405	1132.27	-215.1067	159.6748	1189.3276	-252.1478	296.5983	1148.7847	-27.9874	227.2407	1005.8809	-51.3614	247.465	1016.4615	11.6989	304.8344	861.7969	29.1125	353.3242	799.2422	5.7424	307.5475	792.7696	29.0585	376.8069	716.7997	15.8282	330.0126	712.822	35.4245	418.8851	1330.2592	-297.6634	531.831	1238.9399	-264.7933	555.7955	1282.7627	-278.5269	673.4713	1311.3923	-169.1336	711.1946	1328.7516	-103.6504	721.4464	1287.1237	-109.4108	770.6129	1340.2332	-54.3132	776.8774	1297.3324	-54.424	385.8054	907.1791	-89.1863	191.4169	928.6031	-156.034	366.0439	894.7598	-345.4828	183.6941	922.461	-259.4002	306.7332	971.7043	-55.1558	275.6049	940.198	-378.0204	145.4931	1296.121	-387.7805	168.8912	1199.6588	-403.965	243.4484	1339.9487	-475.5602
55	0.27	178.5269	1367.916	-254.4965	314.0648	1320.9664	-227.8458	177.9999	1324.2002	-85.3792	211.6247	1331.1127	-49.3874	229.7869	1365.9332	-72.6668	234.3295	1341.4912	-408.336	279.816	1363.7997	-418.171	268.5725	1388.1803	-371.3457	392.147	1132.3086	-215.0784	159.6819	1189.3229	-252.1738	296.5761	1148.7946	-27.9392	227.2243	1005.8577	-51.3414	247.4584	1016.4194	11.7501	304.7821	861.8251	29.2036	353.2806	799.2513	5.7591	307.5404	792.7338	29.1172	376.7631	716.8191	15.8835	329.9523	712.7752	35.4572	418.9274	1330.1373	-297.6628	529.5544	1239.7159	-264.2488	555.83	1282.6654	-278.514	673.4748	1311.3479	-169.0995	711.2432	1328.6713	-103.6525	721.47	1287.0575	-109.3753	770.6254	1340.1527	-54.2681	776.9304	1297.2033	-54.4193	385.8234	907.1667	-89.1563	191.4425	928.6145	-156.0103	366.0336	894.7478	-345.4861	183.7158	922.4598	-259.4022	306.9664	971.7862	-54.6659	275.6016	940.2087	-378.0132	145.5321	1296.131	-387.7791	168.91	1199.6737	-403.9942	243.5103	1339.9386	-475.5549
56	0.275	178.5833	1367.9196	-254.5246	314.0744	1320.9746	-227.8179	178.0248	1324.1953	-85.4134	211.6259	1331.1029	-49.3655	229.8225	1365.9076	-72.6841	234.3789	1341.4962	-408.3479	279.8584	1363.7935	-418.1602	268.6187	1388.1901	-371.3567	392.2087	1132.3145	-215.0774	159.6989	1189.3256	-252.173	296.5979	1148.7849	-27.9401	227.2389	1005.8747	-51.3424	247.4675	1016.485	11.7262	304.7769	861.8266	29.2395	353.1994	799.2737	5.9032	307.5285	792.7452	29.1572	376.7	716.8379	15.9385	329.9358	712.7754	35.5142	418.9533	1330.2203	-297.6203	529.5883	1239.6545	-264.2403	555.8555	1282.6628	-278.4991	673.5105	1311.2773	-169.0915	711.2572	1328.6057	-103.6225	721.5052	1286.9804	-109.3532	770.6303	1340.0878	-54.235	776.8961	1297.1038	-54.3415	385.8632	907.1558	-89.1533	191.4435	928.6163	-155.9979	366.0571	894.7224	-345.4761	183.7233	922.4553	-259.3779	306.9821	971.8332	-54.6385	275.6868	940.132	-377.9734	145.5523	1296.1489	-387.7504	168.9485	1199.661	-403.9849	243.5423	1339.9585	-475.546
57	0.28	178.5988	1367.91	-254.5312	314.1226	1320.9835	-227.8337	178.0557	1324.202	-85.4089	211.6567	1331.0819	-49.3163	229.8177	1365.9525	-72.6827	234.4064	1341.5006	-408.3314	279.8706	1363.8313	-418.1735	268.6699	1388.2026	-371.3546	392.2434	1132.355	-215.0536	159.7239	1189.3364	-252.1782	296.5879	1148.8058	-27.9086	227.2181	1005.8864	-51.3104	247.4575	1016.4677	11.7198	304.7478	861.8123	29.2778	353.1797	799.2738	5.9489	307.4418	792.8076	29.1799	376.6728	716.8357	15.9938	329.9091	712.7922	35.5441	419.0063	1330.1755	-297.6121	529.6028	1239.6449	-264.2283	555.8572	1282.6157	-278.5134	673.2208	1310.8662	-168.9679	711.1257	1328.4471	-103.5361	721.532	1286.8807	-109.3168	770.6348	1340.0346	-54.2206	776.893	1297.0378	-54.2973	385.8654	907.1565	-89.1436	191.4543	928.613	-155.9643	366.0919	894.737	-345.4787	183.7415	922.4533	-259.3768	306.9347	971.8021	-54.639	275.7584	940.0873	-377.9958	145.5882	1296.1594	-387.7328	168.9753	1199.6705	-403.9889	243.6198	1339.948	-475.5747
58	0.285	178.6315	1367.915	-254.5433	314.1647	1321.0159	-227.8331	178.0578	1324.1956	-85.4075	211.7131	1331.0553	-49.4041	229.8529	1365.9452	-72.692	234.4521	1341.5215	-408.3541	279.9057	1363.7997	-418.1225	268.74	1388.2144	-371.3498	392.2814	1132.3815	-215.0412	159.7585	1189.352	-252.187	296.6189	1148.8269	-27.9302	227.2248	1005.8889	-51.2958	247.4477	1016.5107	11.7655	304.6865	861.8582	29.3268	353.1558	799.2185	5.9042	307.3924	792.8317	29.2323	376.7015	716.7431	16.0422	329.8146	712.7946	35.6142	419.0588	1330.1437	-297.6058	529.5982	1239.6383	-264.2274	555.9287	1282.521	-278.4814	673.2775	1310.7281	-168.9412	711.1774	1328.3346	-103.5559	721.5314	1286.8877	-109.2775	770.6761	1339.8954	-54.2132	776.9062	1296.9902	-54.2801	385.895	907.1782	-89.1247	191.4674	928.6261	-155.9705	366.1092	894.7274	-345.4455	183.7589	922.4343	-259.3785	306.9794	971.7927	-54.6463	275.7558	940.098	-377.9648	145.6107	1296.196	-387.7623	168.9946	1199.6848	-403.9905	243.6332	1339.9569	-475.5692
59	0.29	178.6422	1367.912	-254.5334	314.192	1321.0302	-227.8067	178.0953	1324.2006	-85.4068	211.7013	1331.0986	-49.3828	229.8281	1366.0116	-72.7014	234.4941	1341.5225	-408.3427	280.0693	1363.7455	-418.192	268.7715	1388.2157	-371.3286	392.3202	1132.3897	-215.0658	159.7694	1189.345	-252.1875	296.5854	1148.8612	-27.9017	227.2356	1005.9226	-51.2871	247.4401	1016.5294	11.7893	304.6666	861.8721	29.3672	353.055	799.3594	6.0439	307.3779	792.8563	29.2634	376.5815	716.7681	16.17	329.8604	712.7689	35.6664	419.0543	1330.0869	-297.6288	531.8301	1238.7528	-264.7399	555.9565	1282.4828	-278.4845	673.6599	1310.9645	-169.0656	711.2187	1328.2686	-103.5203	721.17	1286.5617	-109.3622	770.6884	1339.8463	-54.1764	776.9721	1296.8729	-54.2513	385.902	907.1755	-89.1103	191.4857	928.6086	-155.9564	366.1187	894.7192	-345.4506	183.7746	922.4579	-259.355	306.9807	971.8519	-54.6291	275.7237	940.1794	-377.9669	145.6508	1296.1586	-387.7549	168.9936	1199.6935	-403.9683	243.6991	1339.9503	-475.5734
60	0.295	178.6774	1367.9258	-254.554	314.2459	1321.0486	-227.8137	178.0988	1324.1885	-85.4043	211.7221	1331.1242	-49.4551	229.8658	1365.9552	-72.6776	234.548	1341.5266	-408.3417	280.0822	1363.7863	-418.1667	268.8265	1388.2131	-371.3467	392.3678	1132.3845	-215.0756	159.7918	1189.3496	-252.1968	296.5856	1148.8626	-27.8884	227.2257	1005.9102	-51.2388	247.4377	1016.5312	11.7656	304.6411	861.8655	29.4078	353.1112	799.2995	6.0487	307.3118	792.8483	29.3295	376.5476	716.7844	16.1897	329.7514	712.807	35.7459	419.0637	1330.0746	-297.6384	529.5967	1239.5649	-264.1604	556.0074	1282.4548	-278.4647	673.6639	1310.8892	-169.0437	711.2141	1328.1971	-103.4592	721.2265	1286.4705	-109.3401	770.6959	1339.7756	-54.1611	776.9867	1296.8099	-54.2214	385.9143	907.1838	-89.096	191.4962	928.6373	-155.9428	366.1747	894.689	-345.493	183.7824	922.4653	-259.3543	307.011	971.8528	-54.6157	275.7939	940.1055	-377.9326	145.6797	1296.2051	-387.7597	169.0385	1199.6885	-403.9674	243.7354	1339.9215	-475.5671
61	0.3	178.6971	1367.9262	-254.5448	314.2817	1321.0478	-227.809	178.1187	1324.2042	-85.4106	211.7286	1331.1066	-49.3875	229.8934	1365.9375	-72.7112	234.5704	1341.5176	-408.3353	280.0763	1363.8375	-418.1974	268.8895	1388.2152	-371.3423	392.3698	1132.4308	-215.0332	159.8165	1189.363	-252.2121	296.616	1148.8238	-27.8953	227.2471	1005.9352	-51.2409	247.4475	1016.5316	11.8072	304.6623	861.858	29.4156	353.0987	799.2498	6.0799	307.2735	792.8777	29.3314	376.5039	716.8106	16.2649	329.7081	712.7854	35.7476	419.1107	1330.0863	-297.6275	531.4478	1238.6597	-264.7187	556.0162	1282.3799	-278.4507	673.6903	1310.8501	-169.0111	711.2485	1328.1387	-103.4214	721.2553	1286.4161	-109.3036	770.7173	1339.6876	-54.1272	776.9734	1296.7606	-54.1624	385.9218	907.1691	-89.1034	191.5364	928.621	-155.9355	366.1732	894.7061	-345.4305	183.8059	922.4524	-259.3446	307.0765	971.8657	-54.6396	275.7961	940.1442	-377.9047	145.7089	1296.201	-387.7418	169.0298	1199.7017	-403.9484	243.8087	1339.9041	-475.5842
